<svg xmlns="http://www.w3.org/2000/svg" viewBox="0 0 1600 900" role="img" aria-labelledby="t d"><title id="t">ROVIQ Car Wash and Vacuum Bay</title><desc id="d">Premium dark navy ROVIQ car wash with illuminated wash tunnel, vacuum bays and Pacific Northwest landscaping.</desc><defs><linearGradient id="sky" x1="0" y1="0" x2="0" y2="1"><stop stop-color="#263a4c"/><stop offset="1" stop-color="#07131f"/></linearGradient><linearGradient id="glass" x1="0" y1="0" x2="1" y2="1"><stop stop-color="#173b48"/><stop offset=".5" stop-color="#0b202b"/><stop offset="1" stop-color="#07131f"/></linearGradient><linearGradient id="road" x1="0" y1="0" x2="0" y2="1"><stop stop-color="#27323a"/><stop offset="1" stop-color="#0a1116"/></linearGradient><filter id="glow"><feGaussianBlur stdDeviation="8" result="b"/><feMerge><feMergeNode in="b"/><feMergeNode in="SourceGraphic"/></feMerge></filter></defs><rect width="1600" height="900" fill="url(#sky)"/><g fill="#071019" opacity=".9"><path d="M0 340 80 170l55 125 70-180 80 205 65-155 80 180 80-230 90 225 65-150 80 160v90H0z"/><path d="M1040 350 1120 160l65 150 65-205 75 210 70-170 70 205 65-145 70 170v80h-560z"/></g><rect y="610" width="1600" height="290" fill="url(#road)"/><path d="M0 760 Q420 700 820 760 T1600 745" fill="none" stroke="#5f7480" stroke-width="4" opacity=".45"/><g opacity=".55" stroke="#51a7a4" stroke-width="4"><path d="M100 820h520"/><path d="M980 820h500"/></g><g><rect x="120" y="285" width="980" height="390" rx="8" fill="#0a1723" stroke="#c89245" stroke-width="3"/><rect x="105" y="255" width="1010" height="82" rx="6" fill="#07131f" stroke="#c89245" stroke-width="3"/><text x="165" y="310" fill="#e1b770" font-family="Georgia,serif" font-size="48" letter-spacing="8">ROVIQ CAR WASH</text><text x="890" y="307" fill="#51a7a4" font-family="Arial,sans-serif" font-size="22" letter-spacing="4">WASH • DRY • GO</text><rect x="165" y="350" width="650" height="275" fill="url(#glass)" stroke="#2d5661" stroke-width="3"/><g stroke="#51a7a4" stroke-width="5" opacity=".75"><path d="M230 365v245"/><path d="M365 365v245"/><path d="M500 365v245"/><path d="M635 365v245"/><path d="M770 365v245"/></g><g fill="#c89245" filter="url(#glow)"><rect x="185" y="365" width="610" height="5"/><circle cx="235" cy="392" r="5"/><circle cx="370" cy="392" r="5"/><circle cx="505" cy="392" r="5"/><circle cx="640" cy="392" r="5"/><circle cx="765" cy="392" r="5"/></g><rect x="840" y="350" width="215" height="275" fill="#0d2031"/><text x="865" y="395" fill="#e1b770" font-family="Arial,sans-serif" font-size="21" letter-spacing="2">VACUUM BAY</text><g stroke="#51a7a4" stroke-width="5" fill="none"><path d="M890 430v145q0 25 25 25h15"/><path d="M995 430v145q0 25-25 25h-15"/></g><g fill="#51a7a4"><rect x="878" y="420" width="24" height="62" rx="8"/><rect x="983" y="420" width="24" height="62" rx="8"/></g></g><g transform="translate(330 500)"><path d="M20 85 58 28q18-25 58-30h210q42 4 72 33l50 54 38 12v72H0V106z" fill="#111b22" stroke="#7b8b94" stroke-width="4"/><path d="M93 28h245q24 7 48 38H70q8-22 23-38z" fill="#24404c"/><rect x="68" y="92" width="345" height="58" rx="18" fill="#17242c"/><ellipse cx="88" cy="164" rx="43" ry="43" fill="#070b0e" stroke="#687780" stroke-width="8"/><ellipse cx="395" cy="164" rx="43" ry="43" fill="#070b0e" stroke="#687780" stroke-width="8"/><path d="M18 108h48" stroke="#e1b770" stroke-width="8" filter="url(#glow)"/><path d="M416 108h48" stroke="#d9534f" stroke-width="8" filter="url(#glow)"/></g><g transform="translate(1190 310)"><rect width="250" height="350" rx="8" fill="#07131f" stroke="#c89245" stroke-width="3"/><circle cx="125" cy="68" r="38" fill="none" stroke="#c89245" stroke-width="4"/><text x="125" y="83" text-anchor="middle" fill="#e1b770" font-family="Georgia,serif" font-size="45">R</text><text x="125" y="137" text-anchor="middle" fill="#e1b770" font-family="Georgia,serif" font-size="25" letter-spacing="4">ROVIQ</text><text x="125" y="169" text-anchor="middle" fill="#f4f2ed" font-family="Arial,sans-serif" font-size="17" letter-spacing="3">CAR WASH</text><line x1="35" y1="196" x2="215" y2="196" stroke="#c89245"/><text x="42" y="235" fill="#51a7a4" font-family="Arial,sans-serif" font-size="17">EXPRESS WASH</text><text x="42" y="270" fill="#f4f2ed" font-family="Arial,sans-serif" font-size="17">VACUUM BAY</text><text x="42" y="305" fill="#f4f2ed" font-family="Arial,sans-serif" font-size="17">MEMBER LANE</text><rect x="35" y="325" width="180" height="4" fill="#51a7a4" filter="url(#glow)"/></g><g fill="#19382e"><ellipse cx="90" cy="680" rx="80" ry="35"/><ellipse cx="1120" cy="690" rx="90" ry="30"/><ellipse cx="1500" cy="690" rx="80" ry="32"/></g><g fill="#3d4b44"><circle cx="55" cy="662" r="18"/><circle cx="100" cy="650" r="24"/><circle cx="145" cy="665" r="17"/><circle cx="1090" cy="665" r="20"/><circle cx="1140" cy="660" r="26"/><circle cx="1480" cy="660" r="23"/><circle cx="1530" cy="670" r="18"/></g><text x="120" y="845" fill="#e1b770" font-family="Arial,sans-serif" font-size="19" letter-spacing="5">PREMIUM WASH • LOW-LABOR MODULE • LOCAL MATERIAL PALETTE</text></svg>